<?xml version="1.0" encoding="UTF-8"?><svg version="1.1" viewBox="0 0 24 24" xmlns="http://www.w3.org/2000/svg" xmlns:xlink="http://www.w3.org/1999/xlink"><!--Generated by IJSVG (https://github.com/iconjar/IJSVG)--><path d="M4.5,12l2.07162e-08,1.6689e-05c-0.000823776,-0.661702 0.283382,-1.2917 0.779987,-1.72901l11.152,-9.81101l-1.50937e-07,1.26652e-07c0.781416,-0.655691 1.94642,-0.553771 2.60211,0.227645c0.634218,0.755826 0.562392,1.87666 -0.163113,2.54535l-9.752,8.579l1.09559e-08,-9.60336e-09c-0.10383,0.0910114 -0.114221,0.248961 -0.0232092,0.352791c0.00721965,0.00823646 0.0149728,0.0159896 0.0232092,0.0232092l9.752,8.579l2.72441e-08,2.28607e-08c0.781416,0.655691 0.883337,1.8207 0.227646,2.60211c-0.655691,0.781416 -1.8207,0.883337 -2.60211,0.227646c-0.021948,-0.0184167 -0.0434645,-0.0373416 -0.064532,-0.0567593l-11.148,-9.808l-1.50156e-07,-1.32129e-07c-0.497811,-0.438047 -0.78337,-1.0689 -0.784,-1.732Z" fill="#000"></path></svg>