<svg fill="none" height="24" viewBox="0 0 24 24" width="24" xmlns="http://www.w3.org/2000/svg"><path clip-rule="evenodd" d="m4.37433 13.3174.36574.133c.05739.0214.11791.0313.17791.0313.07618 0 .15183-.0167.22226-.049.12522-.0595.22279-.1664.26922-.2969l1.99722-5.58623c.02295-.0647.048-.12783.07461-.18992.05582-.132.0553-.28069-.00209-.41217-.05687-.13148-.16539-.23322-.3-.28226l-.33861-.12313c-1.08156-.39444-2.28156.16643-2.67496 1.24695l-1.03878 2.85396c-.19043.5238-.16591 1.0904.06992 1.596.2353.5045.65373.888 1.17756 1.0784zm16.59547-6.5061c-.5609-.13565-1.1243.20922-1.2595.76957l-3.6521 15.13043c-.1352.5604.2092 1.1238.7695 1.2595.0825.0198.1649.0292.2458.0292.4711 0 .8984-.3209 1.0137-.7988l3.6522-15.13042c.1351-.56035-.2098-1.12382-.7696-1.25948zm-8.593-1.59391c1.4384 0 2.6087-1.17078 2.6087-2.60869 0-1.43844-1.1703-2.6087-2.6087-2.6087-1.4379 0-2.60873 1.17026-2.60873 2.6087 0 1.43791 1.17083 2.60869 2.60873 2.60869zm2.4307 9.22591-2.568-1.009 2.6181 7.7593c.3689 1.092-.2181 2.2768-1.3106 2.6452-1.0555.3563-2.1986-.1847-2.6076-1.2063l-1.59864-4.021-1.80887 4.0763c-.46747 1.0539-1.70139 1.5303-2.75582 1.0618-1.00435-.4451-1.4807-1.5934-1.11913-2.6119l4.73269-13.237c.48522-1.35757 1.97947-2.06505 3.33707-1.57931 1.3575.48522 2.0645 1.97948 1.5793 3.33652-.0188.05165-.0407.10539-.0626.15653l2.964 1.82866c.7388.456.9678 1.4244.5123 2.1632-.4059.6568-1.2177.9104-1.9122.637z" fill="#000" fill-rule="evenodd"/></svg>