<?xml version="1.0" encoding="UTF-8"?><svg version="1.1" viewBox="0 0 24 24" xmlns="http://www.w3.org/2000/svg"
    xmlns:xlink="http://www.w3.org/1999/xlink">
    <!--Generated by IJSVG (https://github.com/iconjar/IJSVG)-->
    <path
        d="M23.414,20.591l-4.645,-4.645l-3.97725e-07,5.95363e-07c3.14642,-4.70994 1.87893,-11.0788 -2.83101,-14.2252c-4.70994,-3.14642 -11.0788,-1.87893 -14.2252,2.83101c-3.14642,4.70994 -1.87893,11.0788 2.83101,14.2252c3.44979,2.30459 7.94823,2.30379 11.3972,-0.00201391l4.645,4.644l-2.40723e-08,-2.34818e-08c0.786547,0.767251 2.04145,0.767251 2.828,4.69635e-08l3.76712e-08,-3.76826e-08c0.780764,-0.781 0.780765,-2.047 5.43952e-07,-2.828Zm-13.164,-17.586l-3.16908e-07,8.88178e-15c4.00406,-1.75023e-07 7.25,3.24594 7.25,7.25c1.75023e-07,4.00406 -3.24594,7.25 -7.25,7.25c-4.00406,1.75023e-07 -7.25,-3.24594 -7.25,-7.25l-7.73088e-08,7.04905e-05c0.00436992,-4.00224 3.24769,-7.24562 7.24993,-7.25007Z"
        fill="#000"></path>
</svg>