<?xml version="1.0" encoding="UTF-8" standalone="no"?>
<!DOCTYPE svg PUBLIC "-//W3C//DTD SVG 1.1//EN" "http://www.w3.org/Graphics/SVG/1.1/DTD/svg11.dtd">
<svg width="100%" height="100%" viewBox="0 0 138 134" version="1.1" xmlns="http://www.w3.org/2000/svg" xmlns:xlink="http://www.w3.org/1999/xlink" xml:space="preserve" xmlns:serif="http://www.serif.com/" style="fill-rule:evenodd;clip-rule:evenodd;">
    <g transform="matrix(4.16667,0,0,4.16667,0,0)">
        <circle cx="16.376" cy="15.992" r="14.664" style="fill:none;stroke:rgb(34,35,38);stroke-width:2.5px;"/>
        <path d="M19.114,21.291C19.042,21.148 18.982,20.985 18.932,20.799C18.882,20.614 18.84,20.419 18.804,20.212C18.64,20.39 18.451,20.557 18.238,20.714C18.024,20.871 17.786,21.01 17.522,21.131C17.266,21.244 16.981,21.334 16.668,21.398C16.354,21.469 16.016,21.505 15.653,21.505C15.062,21.505 14.517,21.419 14.019,21.248C13.527,21.077 13.104,20.839 12.748,20.533C12.392,20.226 12.114,19.863 11.914,19.443C11.715,19.016 11.615,18.553 11.615,18.054C11.615,16.837 12.068,15.897 12.972,15.235C13.883,14.565 15.24,14.23 17.042,14.23L18.697,14.23L18.697,13.547C18.697,12.991 18.516,12.554 18.152,12.233C17.789,11.906 17.266,11.742 16.582,11.742C15.977,11.742 15.535,11.874 15.258,12.137C14.98,12.393 14.841,12.739 14.841,13.173L11.872,13.173C11.872,12.682 11.979,12.215 12.192,11.774C12.413,11.332 12.73,10.944 13.143,10.61C13.563,10.275 14.072,10.011 14.67,9.819C15.275,9.62 15.966,9.52 16.742,9.52C17.44,9.52 18.088,9.605 18.686,9.776C19.292,9.947 19.815,10.2 20.257,10.535C20.698,10.869 21.043,11.293 21.293,11.806C21.542,12.311 21.667,12.899 21.667,13.568L21.667,18.524C21.667,19.144 21.706,19.657 21.784,20.063C21.862,20.468 21.976,20.817 22.126,21.109L22.126,21.291L19.114,21.291ZM16.283,19.208C16.582,19.208 16.86,19.172 17.116,19.101C17.373,19.03 17.604,18.937 17.811,18.823C18.017,18.709 18.195,18.581 18.345,18.439C18.494,18.289 18.612,18.14 18.697,17.99L18.697,16.004L17.18,16.004C16.718,16.004 16.322,16.05 15.995,16.142C15.667,16.228 15.4,16.352 15.194,16.516C14.987,16.673 14.834,16.865 14.734,17.093C14.635,17.314 14.585,17.556 14.585,17.819C14.585,18.218 14.724,18.549 15.001,18.813C15.286,19.076 15.713,19.208 16.283,19.208Z" style="fill:rgb(34,35,38);fill-rule:nonzero;"/>
    </g>
</svg>
