<?xml version="1.0" encoding="UTF-8" standalone="no"?>
<!DOCTYPE svg PUBLIC "-//W3C//DTD SVG 1.1//EN" "http://www.w3.org/Graphics/SVG/1.1/DTD/svg11.dtd">
<svg width="100%" height="100%" viewBox="0 0 84 88" version="1.1" xmlns="http://www.w3.org/2000/svg" xmlns:xlink="http://www.w3.org/1999/xlink" xml:space="preserve" xmlns:serif="http://www.serif.com/" style="fill-rule:evenodd;clip-rule:evenodd;stroke-linejoin:round;stroke-miterlimit:2;">
    <g transform="matrix(1,0,0,1,-8,-6)">
        <path d="M50,6.507C26.934,6.507 8.233,25.982 8.233,50C8.233,74.021 26.934,93.492 50,93.492C73.073,93.492 91.767,74.021 91.767,50C91.767,25.982 73.072,6.507 50,6.507ZM50,83.979C32.008,83.979 17.37,68.739 17.37,50C17.37,31.264 32.008,16.021 50,16.021C67.99,16.021 82.626,31.264 82.626,50C82.626,68.738 67.989,83.979 50,83.979Z" style="fill-rule:nonzero;"/>
    </g>
    <g transform="matrix(1,0,0,1,-8,-6)">
        <path d="M70.173,49.722L52.59,49.738L52.59,26.683C52.59,24.43 50.835,22.604 48.674,22.604C46.51,22.604 44.76,24.43 44.76,26.683L44.76,55.97C44.76,58.217 46.51,60.049 48.674,60.049C49.536,60.049 50.333,59.744 50.976,59.249L70.178,59.237C72.697,59.237 74.741,57.104 74.741,54.48C74.741,51.854 72.696,49.722 70.173,49.722Z" style="fill-rule:nonzero;"/>
    </g>
</svg>
