<?xml version="1.0" encoding="UTF-8" standalone="no"?>
<!DOCTYPE svg PUBLIC "-//W3C//DTD SVG 1.1//EN" "http://www.w3.org/Graphics/SVG/1.1/DTD/svg11.dtd">
<svg width="100%" height="100%" viewBox="0 0 969 969" version="1.1" xmlns="http://www.w3.org/2000/svg" xmlns:xlink="http://www.w3.org/1999/xlink" xml:space="preserve" xmlns:serif="http://www.serif.com/" style="fill-rule:evenodd;clip-rule:evenodd;stroke-linecap:round;stroke-linejoin:round;stroke-miterlimit:1.5;">
    <g transform="matrix(3.125,0,0,3.125,0,0)">
        <g transform="matrix(1,0,0,1,-2,0)">
            <path d="M308,75.493C308,59.215 294.785,46 278.507,46L36.493,46C20.215,46 7,59.215 7,75.493L7,235.507C7,251.785 20.215,265 36.493,265L278.507,265C294.785,265 308,251.785 308,235.507L308,75.493ZM285,76.246C285,71.143 280.857,67 275.754,67L38.246,67C33.143,67 29,71.143 29,76.246L29,234.754C29,239.857 33.143,244 38.246,244L275.754,244C280.857,244 285,239.857 285,234.754L285,76.246ZM102.02,155.752L49.599,208.173C45.534,212.238 45.534,218.837 49.599,222.901C53.663,226.966 60.262,226.966 64.327,222.901L116.74,170.487L148.188,201.968C150.634,204.417 153.941,205.486 157.14,205.174C160.24,205.389 163.412,204.313 165.779,201.946L196.749,170.977L248.673,222.901C252.738,226.966 259.337,226.966 263.401,222.901C267.466,218.837 267.466,212.238 263.401,208.173L211.477,156.249L263.944,103.781C268.284,99.441 268.284,92.394 263.944,88.055C259.605,83.715 252.558,83.715 248.218,88.055L156.976,179.296L65.809,88.033C61.471,83.691 54.424,83.687 50.082,88.025C45.74,92.362 45.737,99.409 50.074,103.751L102.02,155.752Z" style="stroke:white;stroke-width:1px;"/>
        </g>
    </g>
</svg>
