<svg xmlns="http://www.w3.org/2000/svg" xmlns:xlink="http://www.w3.org/1999/xlink" xmlns:sketch="http://www.bohemiancoding.com/sketch/ns" viewBox="0 0 60 75" version="1.1" x="0px" y="0px"><title>6 - Stargate (Solid)</title><desc>Created with Sketch.</desc><g stroke="none" stroke-width="1" fill="none" fill-rule="evenodd" sketch:type="MSPage"><g sketch:type="MSLayerGroup" fill="#000000"><path d="M59,31.43 C58.716,31.43 58.459,31.549 58.277,31.739 L53.135,30.196 C53.098,30.186 53.016,30.147 52.999,30.028 C52.997,30.016 52.988,30.014 52.988,30 C52.988,29.986 52.998,29.984 52.999,29.971 C53.016,29.853 53.098,29.814 53.134,29.804 L58.277,28.261 C58.459,28.451 58.716,28.57 59,28.57 C59.553,28.57 60,28.123 60,27.57 C60,27.122 59.785,26.694 59.425,26.427 C59.065,26.159 58.594,26.077 58.167,26.206 L57.735,26.336 C57.099,21.457 55.205,16.886 52.203,12.979 L52.598,12.767 C52.992,12.555 53.268,12.164 53.333,11.722 C53.398,11.278 53.249,10.824 52.934,10.507 C52.543,10.115 51.909,10.112 51.519,10.503 C51.317,10.704 51.219,10.971 51.225,11.234 L50.932,11.392 L46.498,13.78 C46.439,13.812 46.384,13.816 46.336,13.8 C46.336,13.8 46.336,13.8 46.335,13.8 C46.292,13.784 46.257,13.748 46.228,13.705 C46.223,13.698 46.217,13.691 46.213,13.684 C46.201,13.661 46.195,13.639 46.193,13.616 C46.193,13.611 46.19,13.605 46.19,13.6 C46.191,13.57 46.2,13.538 46.22,13.503 L48.608,9.068 L48.766,8.775 C48.998,8.773 49.296,8.683 49.497,8.481 C49.887,8.089 49.885,7.456 49.493,7.066 C49.177,6.751 48.73,6.598 48.278,6.667 C47.836,6.732 47.445,7.008 47.233,7.401 L47.021,7.797 C43.114,4.795 38.544,2.902 33.664,2.265 L33.793,1.835 C33.923,1.406 33.84,0.936 33.573,0.575 C33.306,0.215 32.878,0 32.43,0 C31.877,0 31.43,0.447 31.43,1 C31.43,1.284 31.548,1.541 31.739,1.723 L30.197,6.865 C30.186,6.902 30.147,6.984 30.029,7.001 C30.016,7.002 30.015,7.012 30,7.012 C29.986,7.012 29.984,7.003 29.971,7.001 C29.853,6.984 29.814,6.902 29.804,6.866 L28.261,1.723 C28.452,1.541 28.57,1.284 28.57,1 C28.57,0.447 28.123,0 27.57,0 C27.122,0 26.694,0.215 26.427,0.575 C26.16,0.936 26.077,1.406 26.206,1.833 L26.336,2.265 C21.456,2.902 16.885,4.795 12.979,7.797 L12.767,7.402 C12.555,7.008 12.164,6.732 11.722,6.667 C11.275,6.597 10.825,6.751 10.506,7.066 C10.115,7.456 10.113,8.089 10.503,8.481 C10.705,8.683 10.969,8.771 11.235,8.775 L11.393,9.068 L11.392,9.068 L13.78,13.503 C13.799,13.538 13.809,13.57 13.81,13.6 C13.81,13.605 13.808,13.61 13.807,13.615 C13.806,13.638 13.799,13.661 13.787,13.684 C13.783,13.691 13.777,13.698 13.772,13.705 C13.711,13.796 13.614,13.84 13.503,13.78 L9.067,11.392 L8.775,11.235 C8.782,10.972 8.684,10.706 8.483,10.505 C8.092,10.114 7.459,10.114 7.069,10.505 C6.752,10.821 6.602,11.275 6.667,11.719 C6.731,12.162 7.006,12.554 7.4,12.767 L7.796,12.979 C4.795,16.886 2.902,21.456 2.265,26.335 L1.834,26.206 C1.407,26.077 0.934,26.16 0.575,26.427 C0.215,26.694 0,27.122 0,27.57 C0,28.123 0.448,28.57 1,28.57 C1.284,28.57 1.541,28.451 1.723,28.261 L6.865,29.804 C6.901,29.814 6.984,29.853 7.001,29.971 C7.002,29.984 7.012,29.986 7.012,30 C7.012,30.014 7.003,30.016 7.001,30.028 C6.984,30.147 6.902,30.186 6.866,30.196 L1.723,31.739 C1.541,31.549 1.284,31.43 1,31.43 C0.448,31.43 0,31.877 0,32.43 C0,32.878 0.215,33.306 0.575,33.573 C0.823,33.757 1.123,33.854 1.426,33.854 C1.563,33.854 1.701,33.834 1.833,33.794 L2.265,33.665 C2.902,38.544 4.795,43.114 7.796,47.021 L7.4,47.234 C7.006,47.446 6.731,47.838 6.667,48.281 C6.602,48.725 6.752,49.179 7.069,49.495 C7.264,49.69 7.52,49.788 7.776,49.788 C8.032,49.788 8.288,49.69 8.483,49.495 C8.684,49.294 8.782,49.028 8.775,48.765 L13.503,46.22 C13.562,46.188 13.616,46.184 13.664,46.2 C13.665,46.201 13.665,46.201 13.666,46.201 C13.709,46.216 13.743,46.252 13.772,46.295 C13.777,46.302 13.783,46.309 13.787,46.316 C13.799,46.339 13.805,46.362 13.807,46.384 C13.807,46.389 13.81,46.395 13.81,46.4 C13.809,46.431 13.8,46.462 13.78,46.497 L12.432,49 L11,49 L11,52 L49,52 L49,49 L47.568,49 L46.22,46.497 C46.201,46.462 46.191,46.43 46.19,46.4 C46.19,46.395 46.193,46.39 46.193,46.385 C46.194,46.362 46.201,46.339 46.213,46.316 C46.217,46.309 46.223,46.302 46.228,46.295 C46.288,46.205 46.383,46.162 46.495,46.218 C46.495,46.219 46.497,46.219 46.498,46.22 L49.314,47.737 L50.932,48.608 L51.225,48.766 C51.219,49.029 51.317,49.296 51.519,49.497 C51.714,49.691 51.97,49.788 52.225,49.788 C52.481,49.788 52.738,49.69 52.934,49.493 C53.249,49.176 53.398,48.722 53.333,48.278 C53.268,47.836 52.992,47.445 52.6,47.233 L52.204,47.02 C55.205,43.114 57.099,38.543 57.735,33.664 L58.165,33.793 C58.299,33.834 58.437,33.854 58.574,33.854 C58.877,33.854 59.177,33.757 59.425,33.573 C59.785,33.306 60,32.878 60,32.43 C60,31.877 59.553,31.43 59,31.43 L59,31.43 Z M46.257,13.746 C46.257,13.746 46.256,13.746 46.255,13.745 C46.255,13.745 46.255,13.744 46.254,13.743 C46.255,13.744 46.256,13.745 46.257,13.746 L46.257,13.746 Z M13.746,13.744 C13.745,13.744 13.745,13.745 13.745,13.745 C13.744,13.746 13.744,13.746 13.743,13.746 C13.744,13.745 13.745,13.744 13.746,13.744 L13.746,13.744 Z M47.723,44.607 L47.445,44.458 C46.581,43.994 45.535,44.147 44.841,44.841 C44.147,45.535 43.994,46.582 44.459,47.446 C44.51,47.542 44.584,47.615 44.658,47.686 C44.101,48.15 43.52,48.588 42.916,49 L39,49 C39,48.448 38.552,48 38,48 C37.448,48 37,48.448 37,49 L33,49 C33,48.448 32.552,48 32,48 C31.448,48 31,48.448 31,49 L27,49 C27,48.448 26.552,48 26,48 C25.448,48 25,48.448 25,49 L21,49 C21,48.448 20.552,48 20,48 C19.448,48 19,48.448 19,49 L17.084,49 C16.48,48.588 15.9,48.15 15.342,47.686 C15.416,47.615 15.49,47.542 15.541,47.446 C16.006,46.582 15.853,45.535 15.159,44.841 C14.464,44.148 13.419,43.993 12.554,44.458 L12.277,44.607 C9.399,41.113 7.57,36.807 7.121,32.208 L7.44,32.112 C8.38,31.83 9.012,30.981 9.012,30 C9.012,29.019 8.38,28.17 7.44,27.888 L7.11,27.789 C7.559,23.104 9.416,18.823 12.257,15.382 L12.555,15.542 C12.887,15.721 13.247,15.808 13.604,15.808 C14.172,15.808 14.732,15.586 15.159,15.159 C15.853,14.465 16.006,13.418 15.541,12.555 L15.381,12.257 C18.823,9.417 23.103,7.559 27.789,7.11 L27.888,7.441 C28.17,8.381 29.019,9.012 30,9.012 C30.981,9.012 31.83,8.381 32.112,7.44 L32.211,7.11 C36.897,7.559 41.177,9.416 44.619,12.257 L44.459,12.554 C43.994,13.418 44.147,14.465 44.841,15.159 C45.268,15.586 45.827,15.808 46.396,15.808 C46.753,15.808 47.113,15.721 47.446,15.542 L47.743,15.382 C50.584,18.824 52.441,23.103 52.89,27.788 L52.559,27.888 C51.619,28.17 50.988,29.019 50.988,30 C50.988,30.981 51.619,31.83 52.56,32.112 L52.879,32.208 C52.43,36.807 50.601,41.113 47.723,44.607 L47.723,44.607 Z" sketch:type="MSShapeGroup"/><path d="M17,15 C16.448,15 16,15.448 16,16 C16,16.552 16.448,17 17,17 C17.552,17 18,16.552 18,16 C18,15.448 17.552,15 17,15" sketch:type="MSShapeGroup"/><path d="M23,9 C22.448,9 22,9.448 22,10 C22,10.552 22.448,11 23,11 C23.552,11 24,10.552 24,10 C24,9.448 23.552,9 23,9" sketch:type="MSShapeGroup"/><path d="M23,15 C22.448,15 22,15.448 22,16 C22,16.552 22.448,17 23,17 C23.552,17 24,16.552 24,16 C24,15.448 23.552,15 23,15" sketch:type="MSShapeGroup"/><path d="M29,9 C28.448,9 28,9.448 28,10 C28,10.552 28.448,11 29,11 C29.552,11 30,10.552 30,10 C30,9.448 29.552,9 29,9" sketch:type="MSShapeGroup"/><path d="M29,15 C28.448,15 28,15.448 28,16 C28,16.552 28.448,17 29,17 C29.552,17 30,16.552 30,16 C30,15.448 29.552,15 29,15" sketch:type="MSShapeGroup"/><path d="M20,12 C19.448,12 19,12.448 19,13 C19,13.552 19.448,14 20,14 C20.552,14 21,13.552 21,13 C21,12.448 20.552,12 20,12" sketch:type="MSShapeGroup"/><path d="M26,12 C25.448,12 25,12.448 25,13 C25,13.552 25.448,14 26,14 C26.552,14 27,13.552 27,13 C27,12.448 26.552,12 26,12" sketch:type="MSShapeGroup"/><path d="M35,9 C34.448,9 34,9.448 34,10 C34,10.552 34.448,11 35,11 C35.552,11 36,10.552 36,10 C36,9.448 35.552,9 35,9" sketch:type="MSShapeGroup"/><path d="M35,15 C34.448,15 34,15.448 34,16 C34,16.552 34.448,17 35,17 C35.552,17 36,16.552 36,16 C36,15.448 35.552,15 35,15" sketch:type="MSShapeGroup"/><path d="M41,15 C40.448,15 40,15.448 40,16 C40,16.552 40.448,17 41,17 C41.552,17 42,16.552 42,16 C42,15.448 41.552,15 41,15" sketch:type="MSShapeGroup"/><path d="M32,12 C31.448,12 31,12.448 31,13 C31,13.552 31.448,14 32,14 C32.552,14 33,13.552 33,13 C33,12.448 32.552,12 32,12" sketch:type="MSShapeGroup"/><path d="M38,12 C37.448,12 37,12.448 37,13 C37,13.552 37.448,14 38,14 C38.552,14 39,13.552 39,13 C39,12.448 38.552,12 38,12" sketch:type="MSShapeGroup"/><path d="M14,18 C13.448,18 13,18.448 13,19 C13,19.552 13.448,20 14,20 C14.552,20 15,19.552 15,19 C15,18.448 14.552,18 14,18" sketch:type="MSShapeGroup"/><path d="M11,21 C10.448,21 10,21.448 10,22 C10,22.552 10.448,23 11,23 C11.552,23 12,22.552 12,22 C12,21.448 11.552,21 11,21" sketch:type="MSShapeGroup"/><path d="M14,24 C13.448,24 13,24.448 13,25 C13,25.552 13.448,26 14,26 C14.552,26 15,25.552 15,25 C15,24.448 14.552,24 14,24" sketch:type="MSShapeGroup"/><path d="M11,27 C10.448,27 10,27.448 10,28 C10,28.552 10.448,29 11,29 C11.552,29 12,28.552 12,28 C12,27.448 11.552,27 11,27" sketch:type="MSShapeGroup"/><path d="M11,33 C10.448,33 10,33.448 10,34 C10,34.552 10.448,35 11,35 C11.552,35 12,34.552 12,34 C12,33.448 11.552,33 11,33" sketch:type="MSShapeGroup"/><path d="M17,21 C16.448,21 16,21.448 16,22 C16,22.552 16.448,23 17,23 C17.552,23 18,22.552 18,22 C18,21.448 17.552,21 17,21" sketch:type="MSShapeGroup"/><path d="M17,27 C16.448,27 16,27.448 16,28 C16,28.552 16.448,29 17,29 C17.552,29 18,28.552 18,28 C18,27.448 17.552,27 17,27" sketch:type="MSShapeGroup"/><path d="M17,33 C16.448,33 16,33.448 16,34 C16,34.552 16.448,35 17,35 C17.552,35 18,34.552 18,34 C18,33.448 17.552,33 17,33" sketch:type="MSShapeGroup"/><path d="M14,30 C13.448,30 13,30.448 13,31 C13,31.552 13.448,32 14,32 C14.552,32 15,31.552 15,31 C15,30.448 14.552,30 14,30" sketch:type="MSShapeGroup"/><path d="M20,18 C19.448,18 19,18.448 19,19 C19,19.552 19.448,20 20,20 C20.552,20 21,19.552 21,19 C21,18.448 20.552,18 20,18" sketch:type="MSShapeGroup"/><path d="M26,18 C25.448,18 25,18.448 25,19 C25,19.552 25.448,20 26,20 C26.552,20 27,19.552 27,19 C27,18.448 26.552,18 26,18" sketch:type="MSShapeGroup"/><path d="M23,21 C22.448,21 22,21.448 22,22 C22,22.552 22.448,23 23,23 C23.552,23 24,22.552 24,22 C24,21.448 23.552,21 23,21" sketch:type="MSShapeGroup"/><path d="M20,24 C19.448,24 19,24.448 19,25 C19,25.552 19.448,26 20,26 C20.552,26 21,25.552 21,25 C21,24.448 20.552,24 20,24" sketch:type="MSShapeGroup"/><path d="M26,24 C25.448,24 25,24.448 25,25 C25,25.552 25.448,26 26,26 C26.552,26 27,25.552 27,25 C27,24.448 26.552,24 26,24" sketch:type="MSShapeGroup"/><path d="M23,27 C22.448,27 22,27.448 22,28 C22,28.552 22.448,29 23,29 C23.552,29 24,28.552 24,28 C24,27.448 23.552,27 23,27" sketch:type="MSShapeGroup"/><path d="M23,33 C22.448,33 22,33.448 22,34 C22,34.552 22.448,35 23,35 C23.552,35 24,34.552 24,34 C24,33.448 23.552,33 23,33" sketch:type="MSShapeGroup"/><path d="M29,21 C28.448,21 28,21.448 28,22 C28,22.552 28.448,23 29,23 C29.552,23 30,22.552 30,22 C30,21.448 29.552,21 29,21" sketch:type="MSShapeGroup"/><path d="M29,27 C28.448,27 28,27.448 28,28 C28,28.552 28.448,29 29,29 C29.552,29 30,28.552 30,28 C30,27.448 29.552,27 29,27" sketch:type="MSShapeGroup"/><path d="M29,33 C28.448,33 28,33.448 28,34 C28,34.552 28.448,35 29,35 C29.552,35 30,34.552 30,34 C30,33.448 29.552,33 29,33" sketch:type="MSShapeGroup"/><path d="M20,30 C19.448,30 19,30.448 19,31 C19,31.552 19.448,32 20,32 C20.552,32 21,31.552 21,31 C21,30.448 20.552,30 20,30" sketch:type="MSShapeGroup"/><path d="M26,30 C25.448,30 25,30.448 25,31 C25,31.552 25.448,32 26,32 C26.552,32 27,31.552 27,31 C27,30.448 26.552,30 26,30" sketch:type="MSShapeGroup"/><path d="M32,18 C31.448,18 31,18.448 31,19 C31,19.552 31.448,20 32,20 C32.552,20 33,19.552 33,19 C33,18.448 32.552,18 32,18" sketch:type="MSShapeGroup"/><path d="M38,18 C37.448,18 37,18.448 37,19 C37,19.552 37.448,20 38,20 C38.552,20 39,19.552 39,19 C39,18.448 38.552,18 38,18" sketch:type="MSShapeGroup"/><path d="M35,21 C34.448,21 34,21.448 34,22 C34,22.552 34.448,23 35,23 C35.552,23 36,22.552 36,22 C36,21.448 35.552,21 35,21" sketch:type="MSShapeGroup"/><path d="M32,24 C31.448,24 31,24.448 31,25 C31,25.552 31.448,26 32,26 C32.552,26 33,25.552 33,25 C33,24.448 32.552,24 32,24" sketch:type="MSShapeGroup"/><path d="M38,24 C37.448,24 37,24.448 37,25 C37,25.552 37.448,26 38,26 C38.552,26 39,25.552 39,25 C39,24.448 38.552,24 38,24" sketch:type="MSShapeGroup"/><path d="M35,27 C34.448,27 34,27.448 34,28 C34,28.552 34.448,29 35,29 C35.552,29 36,28.552 36,28 C36,27.448 35.552,27 35,27" sketch:type="MSShapeGroup"/><path d="M35,33 C34.448,33 34,33.448 34,34 C34,34.552 34.448,35 35,35 C35.552,35 36,34.552 36,34 C36,33.448 35.552,33 35,33" sketch:type="MSShapeGroup"/><path d="M41,21 C40.448,21 40,21.448 40,22 C40,22.552 40.448,23 41,23 C41.552,23 42,22.552 42,22 C42,21.448 41.552,21 41,21" sketch:type="MSShapeGroup"/><path d="M41,27 C40.448,27 40,27.448 40,28 C40,28.552 40.448,29 41,29 C41.552,29 42,28.552 42,28 C42,27.448 41.552,27 41,27" sketch:type="MSShapeGroup"/><path d="M41,33 C40.448,33 40,33.448 40,34 C40,34.552 40.448,35 41,35 C41.552,35 42,34.552 42,34 C42,33.448 41.552,33 41,33" sketch:type="MSShapeGroup"/><path d="M32,30 C31.448,30 31,30.448 31,31 C31,31.552 31.448,32 32,32 C32.552,32 33,31.552 33,31 C33,30.448 32.552,30 32,30" sketch:type="MSShapeGroup"/><path d="M38,30 C37.448,30 37,30.448 37,31 C37,31.552 37.448,32 38,32 C38.552,32 39,31.552 39,31 C39,30.448 38.552,30 38,30" sketch:type="MSShapeGroup"/><path d="M44,18 C43.448,18 43,18.448 43,19 C43,19.552 43.448,20 44,20 C44.552,20 45,19.552 45,19 C45,18.448 44.552,18 44,18" sketch:type="MSShapeGroup"/><path d="M47,21 C46.448,21 46,21.448 46,22 C46,22.552 46.448,23 47,23 C47.552,23 48,22.552 48,22 C48,21.448 47.552,21 47,21" sketch:type="MSShapeGroup"/><path d="M44,24 C43.448,24 43,24.448 43,25 C43,25.552 43.448,26 44,26 C44.552,26 45,25.552 45,25 C45,24.448 44.552,24 44,24" sketch:type="MSShapeGroup"/><path d="M50,26 C50.552,26 51,25.552 51,25 C51,24.448 50.552,24 50,24 C49.448,24 49,24.448 49,25 C49,25.552 49.448,26 50,26" sketch:type="MSShapeGroup"/><path d="M47,27 C46.448,27 46,27.448 46,28 C46,28.552 46.448,29 47,29 C47.552,29 48,28.552 48,28 C48,27.448 47.552,27 47,27" sketch:type="MSShapeGroup"/><path d="M47,33 C46.448,33 46,33.448 46,34 C46,34.552 46.448,35 47,35 C47.552,35 48,34.552 48,34 C48,33.448 47.552,33 47,33" sketch:type="MSShapeGroup"/><path d="M44,30 C43.448,30 43,30.448 43,31 C43,31.552 43.448,32 44,32 C44.552,32 45,31.552 45,31 C45,30.448 44.552,30 44,30" sketch:type="MSShapeGroup"/><path d="M50,30 C49.448,30 49,30.448 49,31 C49,31.552 49.448,32 50,32 C50.552,32 51,31.552 51,31 C51,30.448 50.552,30 50,30" sketch:type="MSShapeGroup"/><path d="M14,36 C13.448,36 13,36.448 13,37 C13,37.552 13.448,38 14,38 C14.552,38 15,37.552 15,37 C15,36.448 14.552,36 14,36" sketch:type="MSShapeGroup"/><path d="M11,39 C10.448,39 10,39.448 10,40 C10,40.552 10.448,41 11,41 C11.552,41 12,40.552 12,40 C12,39.448 11.552,39 11,39" sketch:type="MSShapeGroup"/><path d="M14,42 C13.448,42 13,42.448 13,43 C13,43.552 13.448,44 14,44 C14.552,44 15,43.552 15,43 C15,42.448 14.552,42 14,42" sketch:type="MSShapeGroup"/><path d="M17,39 C16.448,39 16,39.448 16,40 C16,40.552 16.448,41 17,41 C17.552,41 18,40.552 18,40 C18,39.448 17.552,39 17,39" sketch:type="MSShapeGroup"/><path d="M17,45 C16.448,45 16,45.448 16,46 C16,46.552 16.448,47 17,47 C17.552,47 18,46.552 18,46 C18,45.448 17.552,45 17,45" sketch:type="MSShapeGroup"/><path d="M20,36 C19.448,36 19,36.448 19,37 C19,37.552 19.448,38 20,38 C20.552,38 21,37.552 21,37 C21,36.448 20.552,36 20,36" sketch:type="MSShapeGroup"/><path d="M26,36 C25.448,36 25,36.448 25,37 C25,37.552 25.448,38 26,38 C26.552,38 27,37.552 27,37 C27,36.448 26.552,36 26,36" sketch:type="MSShapeGroup"/><path d="M23,39 C22.448,39 22,39.448 22,40 C22,40.552 22.448,41 23,41 C23.552,41 24,40.552 24,40 C24,39.448 23.552,39 23,39" sketch:type="MSShapeGroup"/><path d="M20,42 C19.448,42 19,42.448 19,43 C19,43.552 19.448,44 20,44 C20.552,44 21,43.552 21,43 C21,42.448 20.552,42 20,42" sketch:type="MSShapeGroup"/><path d="M26,42 C25.448,42 25,42.448 25,43 C25,43.552 25.448,44 26,44 C26.552,44 27,43.552 27,43 C27,42.448 26.552,42 26,42" sketch:type="MSShapeGroup"/><path d="M23,45 C22.448,45 22,45.448 22,46 C22,46.552 22.448,47 23,47 C23.552,47 24,46.552 24,46 C24,45.448 23.552,45 23,45" sketch:type="MSShapeGroup"/><path d="M29,39 C28.448,39 28,39.448 28,40 C28,40.552 28.448,41 29,41 C29.552,41 30,40.552 30,40 C30,39.448 29.552,39 29,39" sketch:type="MSShapeGroup"/><path d="M29,45 C28.448,45 28,45.448 28,46 C28,46.552 28.448,47 29,47 C29.552,47 30,46.552 30,46 C30,45.448 29.552,45 29,45" sketch:type="MSShapeGroup"/><path d="M32,36 C31.448,36 31,36.448 31,37 C31,37.552 31.448,38 32,38 C32.552,38 33,37.552 33,37 C33,36.448 32.552,36 32,36" sketch:type="MSShapeGroup"/><path d="M38,36 C37.448,36 37,36.448 37,37 C37,37.552 37.448,38 38,38 C38.552,38 39,37.552 39,37 C39,36.448 38.552,36 38,36" sketch:type="MSShapeGroup"/><path d="M35,39 C34.448,39 34,39.448 34,40 C34,40.552 34.448,41 35,41 C35.552,41 36,40.552 36,40 C36,39.448 35.552,39 35,39" sketch:type="MSShapeGroup"/><path d="M32,42 C31.448,42 31,42.448 31,43 C31,43.552 31.448,44 32,44 C32.552,44 33,43.552 33,43 C33,42.448 32.552,42 32,42" sketch:type="MSShapeGroup"/><path d="M38,42 C37.448,42 37,42.448 37,43 C37,43.552 37.448,44 38,44 C38.552,44 39,43.552 39,43 C39,42.448 38.552,42 38,42" sketch:type="MSShapeGroup"/><path d="M35,45 C34.448,45 34,45.448 34,46 C34,46.552 34.448,47 35,47 C35.552,47 36,46.552 36,46 C36,45.448 35.552,45 35,45" sketch:type="MSShapeGroup"/><path d="M41,39 C40.448,39 40,39.448 40,40 C40,40.552 40.448,41 41,41 C41.552,41 42,40.552 42,40 C42,39.448 41.552,39 41,39" sketch:type="MSShapeGroup"/><path d="M41,45 C40.448,45 40,45.448 40,46 C40,46.552 40.448,47 41,47 C41.552,47 42,46.552 42,46 C42,45.448 41.552,45 41,45" sketch:type="MSShapeGroup"/><path d="M44,36 C43.448,36 43,36.448 43,37 C43,37.552 43.448,38 44,38 C44.552,38 45,37.552 45,37 C45,36.448 44.552,36 44,36" sketch:type="MSShapeGroup"/><path d="M50,36 C49.448,36 49,36.448 49,37 C49,37.552 49.448,38 50,38 C50.552,38 51,37.552 51,37 C51,36.448 50.552,36 50,36" sketch:type="MSShapeGroup"/><path d="M47,39 C46.448,39 46,39.448 46,40 C46,40.552 46.448,41 47,41 C47.552,41 48,40.552 48,40 C48,39.448 47.552,39 47,39" sketch:type="MSShapeGroup"/><path d="M44,42 C43.448,42 43,42.448 43,43 C43,43.552 43.448,44 44,44 C44.552,44 45,43.552 45,43 C45,42.448 44.552,42 44,42" sketch:type="MSShapeGroup"/><path d="M1,57 L59,57 L59,59.94 L1,59.94 L1,57 Z" sketch:type="MSShapeGroup"/><path d="M49,53 L6,53 L6,56 L54,56 L54,53 L49,53" sketch:type="MSShapeGroup"/></g></g><text x="0" y="75" fill="#000000" font-size="5px" font-weight="bold" font-family="'Helvetica Neue', Helvetica, Arial-Unicode, Arial, Sans-serif">Created by Ben Davis</text><text x="0" y="80" fill="#000000" font-size="5px" font-weight="bold" font-family="'Helvetica Neue', Helvetica, Arial-Unicode, Arial, Sans-serif">from the Noun Project</text></svg>