<?xml version="1.0" encoding="UTF-8" standalone="no"?>
<!DOCTYPE svg PUBLIC "-//W3C//DTD SVG 1.1//EN" "http://www.w3.org/Graphics/SVG/1.1/DTD/svg11.dtd">
<svg width="100%" height="100%" viewBox="0 0 284 284" version="1.1" xmlns="http://www.w3.org/2000/svg" xmlns:xlink="http://www.w3.org/1999/xlink" xml:space="preserve" xmlns:serif="http://www.serif.com/" style="fill-rule:evenodd;clip-rule:evenodd;stroke-linejoin:round;stroke-miterlimit:2;">
    <g transform="matrix(4.16667,0,0,4.16667,0,0)">
        <g transform="matrix(1,0,0,1,-16,-16)">
            <path d="M50,52C43.383,52 38,46.841 38,40.5C38,34.159 43.383,29 50,29C56.617,29 62,34.159 62,40.5C62,46.841 56.617,52 50,52ZM50,33.6C46.03,33.6 42.8,36.696 42.8,40.5C42.8,44.304 46.03,47.4 50,47.4C53.97,47.4 57.2,44.304 57.2,40.5C57.2,36.696 53.97,33.6 50,33.6ZM50,18C32.355,18 18,32.355 18,50C18,67.645 32.355,82 50,82C67.645,82 82,67.645 82,50C82,32.355 67.645,18 50,18ZM36,71.874L36,71C36,65.486 40.486,60 46,60L54,60C59.514,60 64,65.486 64,71L64,71.874C59.954,74.472 55.156,76 50,76C44.844,76 40.046,74.472 36,71.874ZM68.938,68.774C68.314,61.628 61.306,55 54,55L46,55C38.694,55 31.686,61.628 31.062,68.774C26.106,64.038 24,57.38 24,50C24,35.664 35.664,24 50,24C64.336,24 76,35.664 76,50C76,57.38 73.894,64.038 68.938,68.774Z" style="fill-rule:nonzero;"/>
        </g>
    </g>
</svg>
