<?xml version="1.0" encoding="UTF-8" standalone="no"?>
<!DOCTYPE svg PUBLIC "-//W3C//DTD SVG 1.1//EN" "http://www.w3.org/Graphics/SVG/1.1/DTD/svg11.dtd">
<svg width="100%" height="100%" viewBox="0 0 267 267" version="1.1" xmlns="http://www.w3.org/2000/svg" xmlns:xlink="http://www.w3.org/1999/xlink" xml:space="preserve" xmlns:serif="http://www.serif.com/" style="fill-rule:evenodd;clip-rule:evenodd;stroke-linejoin:round;stroke-miterlimit:2;">
    <g transform="matrix(4.16667,0,0,4.16667,0,0)">
        <g transform="matrix(1,0,0,1,-18,-18)">
            <path d="M50,20C33.458,20 20,33.458 20,50C20,66.542 33.458,80 50,80C66.542,80 80,66.542 80,50C80,33.458 66.542,20 50,20ZM50,32C55.514,32 60,36.486 60,42C60,47.514 55.514,52 50,52C44.486,52 40,47.514 40,42C40,36.486 44.486,32 50,32ZM50,74C43.094,74 36.878,71.05 32.496,66.366C34.102,60.406 39.538,56 46,56L54,56C60.462,56 65.898,60.406 67.504,66.366C63.122,71.05 56.906,74 50,74Z" style="fill-rule:nonzero;"/>
        </g>
    </g>
</svg>
