<?xml version="1.0" encoding="UTF-8" standalone="no"?>
<!DOCTYPE svg PUBLIC "-//W3C//DTD SVG 1.1//EN" "http://www.w3.org/Graphics/SVG/1.1/DTD/svg11.dtd">
<svg width="100%" height="100%" viewBox="0 0 342 159" version="1.1" xmlns="http://www.w3.org/2000/svg" xmlns:xlink="http://www.w3.org/1999/xlink" xml:space="preserve" xmlns:serif="http://www.serif.com/" style="fill-rule:evenodd;clip-rule:evenodd;stroke-linejoin:round;stroke-miterlimit:2;">
    <g transform="matrix(4.16667,0,0,4.16667,0,0)">
        <g transform="matrix(1,0,0,1,-9,-31)">
            <path d="M72.5,32.5C66.3,32.5 57.8,38.9 51.5,44.5C52.5,45.5 53.2,46.2 53.5,46.5C54.2,47.2 55,48 55.8,48.7C62.9,42.4 69.3,38.5 72.5,38.5C78.9,38.5 84,43.6 84,50C84,55.7 79.9,60.4 74.5,61.4C73.9,61.5 73.2,61.6 72.5,61.6C67.6,61.6 57.4,53.2 52.1,47.9C50.5,46.3 36.5,32.5 27.5,32.5C26.8,32.5 26.2,32.5 25.5,32.6C16.8,33.6 10,41 10,50C10,59.6 17.9,67.5 27.5,67.5C33.7,67.5 42.2,61.1 48.5,55.5C47.6,54.7 46.9,54 46.4,53.5C45.7,52.8 44.9,52 44.1,51.3C37,57.6 30.6,61.5 27.4,61.5C21.2,61.5 16,56.4 16,50C16,44.3 20.1,39.6 25.5,38.6C26.1,38.5 26.8,38.4 27.5,38.4C32.4,38.4 42.6,46.8 47.9,52.1C49.5,53.7 63.5,67.5 72.5,67.5C73.2,67.5 73.8,67.5 74.5,67.4C83.2,66.4 90,59 90,50C90,40.4 82.1,32.5 72.5,32.5Z" style="fill-rule:nonzero;"/>
        </g>
    </g>
</svg>
