<svg width="24" height="24" viewBox="0 0 24 24" fill="none" xmlns="http://www.w3.org/2000/svg">
<path d="M8.44473 4.16774C8.77738 3.90223 9.26125 3.95795 9.5255 4.2922C9.63341 4.4287 9.69223 4.59784 9.69241 4.77217V7.71875C21.8554 8.23506 22 20.0993 22 20.2307C21.998 20.6576 21.652 21.002 21.2272 21C20.8532 20.9982 20.5347 20.7264 20.4723 20.3559C20.4585 20.2786 19.1616 12.3459 9.69241 11.9688V15.3118C9.6922 15.7387 9.34764 16.0845 8.92281 16.0843C8.73184 16.0842 8.54773 16.0127 8.4063 15.8838L2.2525 10.2631C1.9378 9.97632 1.91402 9.48751 2.1994 9.17129C2.22754 9.14011 2.25816 9.1113 2.29096 9.08513L8.44473 4.16774Z" fill="black"/>
</svg>
